HIERARCHY
ROOT hips
{
  OFFSET 0 10.680822821525009 1.3929502295107734
  CHANNELS 6 Xposition Yposition Zposition Yrotation Xrotation Zrotation
  JOINT spine
  {
    OFFSET -7.042017322922631e-31 0.6058489940359625 0
    CHANNELS 3 Yrotation Xrotation Zrotation
    JOINT chest
    {
      OFFSET 0 1.2699794144455032 0
      CHANNELS 3 Yrotation Xrotation Zrotation
      JOINT upperChest
      {
        OFFSET 0 1.217799211677689 0
        CHANNELS 3 Yrotation Xrotation Zrotation
        JOINT neck
        {
          OFFSET 0 1.5248826104153006 0
          CHANNELS 3 Yrotation Xrotation Zrotation
          JOINT head
          {
            OFFSET 0 0.8197772727844447 0
            CHANNELS 3 Yrotation Xrotation Zrotation
            JOINT leftEye
            {
              OFFSET 0.2793952361220866 0.6769952096623495 0.1830357412467788
              CHANNELS 3 Yrotation Xrotation Zrotation
              End Site
              {
                OFFSET 0.2793952361220866 0.6769952096623495 0.1830357412467788
              }
            }
            JOINT rightEye
            {
              OFFSET -0.27939522230689573 0.676995205357064 0.18303631459760622
              CHANNELS 3 Yrotation Xrotation Zrotation
              End Site
              {
                OFFSET -0.27939522230689573 0.676995205357064 0.18303631459760622
              }
            }
          }
        }
        JOINT leftShoulder
        {
          OFFSET 0.41486978509200423 1.1670505408695453 0
          CHANNELS 3 Yrotation Xrotation Zrotation
          JOINT leftUpperArm
          {
            OFFSET 0.9737926108153417 0 0
            CHANNELS 3 Yrotation Xrotation Zrotation
            JOINT leftLowerArm
            {
              OFFSET 2.5269332222665284 0 0
              CHANNELS 3 Yrotation Xrotation Zrotation
              JOINT leftHand
              {
                OFFSET 2.4263782738425914 0 0
                CHANNELS 3 Yrotation Xrotation Zrotation
                JOINT leftIndexProximal
                {
                  OFFSET 0.724320348022514 0.08170607082582437 0.20360061616140124
                  CHANNELS 3 Yrotation Xrotation Zrotation
                  JOINT leftIndexIntermediate
                  {
                    OFFSET 0.36548960630744587 -0.010566596513783999 -0.01414783573280308
                    CHANNELS 3 Yrotation Xrotation Zrotation
                    JOINT leftIndexDistal
                    {
                      OFFSET 0.22502819650693362 -0.007863819831430696 -0.007567681939621526
                      CHANNELS 3 Yrotation Xrotation Zrotation
                      End Site
                      {
                        OFFSET 0.22502819650693362 -0.007863819831430696 -0.007567681939621526
                      }
                    }
                  }
                }
                JOINT leftLittleProximal
                {
                  OFFSET 0.6720322998298205 0.08170601055037707 -0.3230036039466837
                  CHANNELS 3 Yrotation Xrotation Zrotation
                  JOINT leftLittleIntermediate
                  {
                    OFFSET 0.34583592281688713 5.476543019078406e-8 1.3869203337180114e-7
                    CHANNELS 3 Yrotation Xrotation Zrotation
                    JOINT leftLittleDistal
                    {
                      OFFSET 0.19925728062053938 0.003098047439490381 0.0038303983709246925
                      CHANNELS 3 Yrotation Xrotation Zrotation
                      End Site
                      {
                        OFFSET 0.19925728062053938 0.003098047439490381 0.0038303983709246925
                      }
                    }
                  }
                }
                JOINT leftMiddleProximal
                {
                  OFFSET 0.7300436596551069 0.0817073395107144 0.022661722987926763
                  CHANNELS 3 Yrotation Xrotation Zrotation
                  JOINT leftMiddleIntermediate
                  {
                    OFFSET 0.40758254347686607 -0.0000012383587111308714 2.408460318820138e-7
                    CHANNELS 3 Yrotation Xrotation Zrotation
                    JOINT leftMiddleDistal
                    {
                      OFFSET 0.2514490105498507 0.0000013869132886590307 9.738618134136345e-8
                      CHANNELS 3 Yrotation Xrotation Zrotation
                      End Site
                      {
                        OFFSET 0.2514490105498507 0.0000013869132886590307 9.738618134136345e-8
                      }
                    }
                  }
                }
                JOINT leftRingProximal
                {
                  OFFSET 0.7217261161191838 0.08170601902187746 -0.15043395722184966
                  CHANNELS 3 Yrotation Xrotation Zrotation
                  JOINT leftRingIntermediate
                  {
                    OFFSET 0.37808807487521556 0.0000013754022405443322 2.2046919317952884e-7
                    CHANNELS 3 Yrotation Xrotation Zrotation
                    JOINT leftRingDistal
                    {
                      OFFSET 0.21812105442344254 -0.002713483731960231 -0.004991354517454624
                      CHANNELS 3 Yrotation Xrotation Zrotation
                      End Site
                      {
                        OFFSET 0.21812105442344254 -0.002713483731960231 -0.004991354517454624
                      }
                    }
                  }
                }
                JOINT leftThumbProximal
                {
                  OFFSET 0.10793587079521427 -0.1652791240518252 -0.07775251827190094
                  CHANNELS 3 Yrotation Xrotation Zrotation
                  JOINT leftThumbIntermediate
                  {
                    OFFSET 0.40355819082296684 -0.017484006740276614 0.3177776014416309
                    CHANNELS 3 Yrotation Xrotation Zrotation
                    JOINT leftThumbDistal
                    {
                      OFFSET 0.2318764658022603 -0.018510186824293617 0.21396001800186287
                      CHANNELS 3 Yrotation Xrotation Zrotation
                      End Site
                      {
                        OFFSET 0.2318764658022603 -0.018510186824293617 0.21396001800186287
                      }
                    }
                  }
                }
              }
            }
          }
        }
        JOINT rightShoulder
        {
          OFFSET -0.4148697850920044 1.1670505408695453 0
          CHANNELS 3 Yrotation Xrotation Zrotation
          JOINT rightUpperArm
          {
            OFFSET -0.9737926108153414 0 0
            CHANNELS 3 Yrotation Xrotation Zrotation
            JOINT rightLowerArm
            {
              OFFSET -2.5269332222665293 0 0
              CHANNELS 3 Yrotation Xrotation Zrotation
              JOINT rightHand
              {
                OFFSET -2.42637827384259 0 0
                CHANNELS 3 Yrotation Xrotation Zrotation
                JOINT rightIndexProximal
                {
                  OFFSET -0.724320348022514 0.08170607082582437 0.20360061616140124
                  CHANNELS 3 Yrotation Xrotation Zrotation
                  JOINT rightIndexIntermediate
                  {
                    OFFSET -0.36548960630744587 -0.010566596513783999 -0.01414783573280308
                    CHANNELS 3 Yrotation Xrotation Zrotation
                    JOINT rightIndexDistal
                    {
                      OFFSET -0.22502819650693362 -0.007863819831430696 -0.007567681939621526
                      CHANNELS 3 Yrotation Xrotation Zrotation
                      End Site
                      {
                        OFFSET -0.22502819650693362 -0.007863819831430696 -0.007567681939621526
                      }
                    }
                  }
                }
                JOINT rightLittleProximal
                {
                  OFFSET -0.6720322998298205 0.08170601055037707 -0.3230036039466837
                  CHANNELS 3 Yrotation Xrotation Zrotation
                  JOINT rightLittleIntermediate
                  {
                    OFFSET -0.34583592281688713 5.476543019078406e-8 1.3869203337180114e-7
                    CHANNELS 3 Yrotation Xrotation Zrotation
                    JOINT rightLittleDistal
                    {
                      OFFSET -0.19925728062053938 0.003098047439490381 0.0038303983709246925
                      CHANNELS 3 Yrotation Xrotation Zrotation
                      End Site
                      {
                        OFFSET -0.19925728062053938 0.003098047439490381 0.0038303983709246925
                      }
                    }
                  }
                }
                JOINT rightMiddleProximal
                {
                  OFFSET -0.7300436596551069 0.0817073395107144 0.022661722987926763
                  CHANNELS 3 Yrotation Xrotation Zrotation
                  JOINT rightMiddleIntermediate
                  {
                    OFFSET -0.40758254347686607 -0.0000012383587111308714 2.408460318820138e-7
                    CHANNELS 3 Yrotation Xrotation Zrotation
                    JOINT rightMiddleDistal
                    {
                      OFFSET -0.2514490105498507 0.0000013869132886590307 9.738618134136345e-8
                      CHANNELS 3 Yrotation Xrotation Zrotation
                      End Site
                      {
                        OFFSET -0.2514490105498507 0.0000013869132886590307 9.738618134136345e-8
                      }
                    }
                  }
                }
                JOINT rightRingProximal
                {
                  OFFSET -0.7217261161191838 0.08170601902187746 -0.15043395722184966
                  CHANNELS 3 Yrotation Xrotation Zrotation
                  JOINT rightRingIntermediate
                  {
                    OFFSET -0.37808807487521556 0.0000013754022405443322 2.2046919317952884e-7
                    CHANNELS 3 Yrotation Xrotation Zrotation
                    JOINT rightRingDistal
                    {
                      OFFSET -0.21812105442344254 -0.002713483731960231 -0.004991354517454624
                      CHANNELS 3 Yrotation Xrotation Zrotation
                      End Site
                      {
                        OFFSET -0.21812105442344254 -0.002713483731960231 -0.004991354517454624
                      }
                    }
                  }
                }
                JOINT rightThumbProximal
                {
                  OFFSET -0.10793587079521427 -0.1652791240518252 -0.07775251827190094
                  CHANNELS 3 Yrotation Xrotation Zrotation
                  JOINT rightThumbIntermediate
                  {
                    OFFSET -0.40355819082296684 -0.017484006740276614 0.3177776014416309
                    CHANNELS 3 Yrotation Xrotation Zrotation
                    JOINT rightThumbDistal
                    {
                      OFFSET -0.2318764658022603 -0.018510186824293617 0.21396001800186287
                      CHANNELS 3 Yrotation Xrotation Zrotation
                      End Site
                      {
                        OFFSET -0.2318764658022603 -0.018510186824293617 0.21396001800186287
                      }
                    }
                  }
                }
              }
            }
          }
        }
      }
    }
  }
  JOINT leftUpperLeg
  {
    OFFSET 0.8486251390888677 -0.4421577294694363 0
    CHANNELS 3 Yrotation Xrotation Zrotation
    JOINT leftLowerLeg
    {
      OFFSET 0 -4.10147812638609 0
      CHANNELS 3 Yrotation Xrotation Zrotation
      JOINT leftFoot
      {
        OFFSET -0.0002543926476658853 -4.77292286812444 0.007402811231737388
        CHANNELS 3 Yrotation Xrotation Zrotation
        JOINT leftToes
        {
          OFFSET 0 -0.7027875951174846 1.2062924140498823
          CHANNELS 3 Yrotation Xrotation Zrotation
          End Site
          {
            OFFSET 0 -0.7027875951174846 1.2062924140498823
          }
        }
      }
    }
  }
  JOINT rightUpperLeg
  {
    OFFSET -0.8486251390888677 -0.4421577294694363 0
    CHANNELS 3 Yrotation Xrotation Zrotation
    JOINT rightLowerLeg
    {
      OFFSET 0 -4.10147812638609 0
      CHANNELS 3 Yrotation Xrotation Zrotation
      JOINT rightFoot
      {
        OFFSET 0.0002543926476658853 -4.77292286812444 0.007402811231737388
        CHANNELS 3 Yrotation Xrotation Zrotation
        JOINT rightToes
        {
          OFFSET 0 -0.7027875951174846 1.2062924140498823
          CHANNELS 3 Yrotation Xrotation Zrotation
          End Site
          {
            OFFSET 0 -0.7027875951174846 1.2062924140498823
          }
        }
      }
    }
  }
}
MOTION
Frames: 4
Frame Time: 0.03333333333333333
-0.10430208593606949 -1.3904165944131925 0.14804376661777496 -8.994306128707843 22.218779546796576 9.436824366706093 1.1036119459420437 -6.133680074705531 -5.068808019486817 8.122009350217347 -20.102465890058447 -19.564058902133603 0 0 0 -0.6433690131539797 5.030558820068263 -1.4904195412950476 -10.572432177603115 -10.113373763181505 14.546582443910033 0 0 0 0 0 0 22.086011609629224 2.6324196876532167 -4.226891740751938 38.78721976960123 -22.694339890491875 -56.50226622234577 -120.16925615327328 -5.913291789171437 12.796929106458661 -13.791284297253073 7.643535968037412 53.37806129073409 8.276709968698635 11.51199182058296 -74.36117464602765 4.571517081887693 2.8029739970586376 -63.01333529350061 4.5084188591227665 2.683138669169769 -61.502144799979696 19.90816336323483 7.996172263579464 -99.97310449784862 4.9904670506363855 3.938395719883219 -76.5487059023345 4.984201068524227 3.912635415762773 -76.25283023629969 7.311984062617155 6.87123441432213 -86.75032663219497 4.4738962815834284 2.6207083372177054 -60.70613549247289 4.914420009887921 3.6568635237588887 -73.29348147541897 8.46199887033144 2.05396487604481 -97.03768322584183 4.433351351309875 2.5497635227417583 -59.794466581767324 4.8482626116828245 3.452537077054445 -70.89646454595339 6.2737229749903225 4.734488271548196 10.603985219726223 7.61030060132162 3.2859382192326496 1.6211938389806952 2.4822288797129475 -4.591030698671939 15.520523805056497 -7.8425009972567015 -0.49809429729186555 -7.5050321544900465 -21.173330117607417 0.9248563138456097 62.51601818579533 134.58801227058257 -4.536341295666731 -14.302376037389008 32.69329799852382 46.16094948905964 -3.8753533267996074 -4.266590836561185 1.4258255653186371 71.30296678574771 -2.9285613342874535 1.3120030703925034 48.257510897452676 -3.153671876205324 1.588501552405745 53.46025624672776 -22.33601544329417 2.1384955235025696 96.19004141831869 -3.598290327942747 2.356534465720207 66.43180224771412 -3.5972624166458695 2.354185030166051 66.3943501139777 -5.955928874669415 0.8709590207638955 77.90926400891513 -3.2895261471208146 1.7838795003974897 56.93182044563463 -3.6613445651864396 2.5096594032729893 68.84748856096954 -6.427478494863267 2.4907570034568636 90.30320032264733 -3.273469442911196 1.7594519245672777 56.50537357967446 -3.474948332699646 2.0997792246409777 62.276714317163936 -2.532735655858297 4.4405396587669985 -12.342103505068849 -6.884418945503477 2.171257068984617 -1.8155400684376286 -19.677828466194452 2.990801194808911 -21.818071459424846 -3.2013953927328784 -45.7315744626717 -0.03212584464019744 -3.9230522061420636 54.9996023683761 4.230172162130045 0.18473202094569516 -26.750930221981985 3.2263267416286494 -0.004087642574700356 -4.701719108428802 -0.655889702248538 27.421449759653942 -54.264405277388356 -27.3012581584463 -5.363910992584777 62.2974206227336 -14.050658350099841 -3.345605265455907 -16.1488490479092 6.846739924583674 -0.0000034331175523403166 -9.837220630215013 0.0000023572206313712093
-0.12053623795509338 -1.367874594596298 0.18775464594364166 -4.755113037028835 22.60367280329682 10.133293897880758 0.8803876378390845 -6.701918189679719 -5.446814938238274 7.2855255281725055 -21.56939356368243 -19.64902268449494 0 0 0 -0.2119937314564924 5.616384178385501 -1.9212163728729448 -7.619031264017983 -8.283095602291953 11.968186028706604 0 0 0 0 0 0 24.070703396208405 2.68450706171882 -3.279206484550569 37.84342743577311 -20.59884590321049 -57.40541016917939 -124.32111190481389 -5.55675814866453 13.265037974940826 -14.40300947692593 10.436254888127216 53.12359828540412 8.032893891660507 12.063815000317591 -76.7483319497989 4.629601845563566 2.9206598072707637 -64.47704468274729 4.5644882635632555 2.7892159172622746 -62.84063967756933 19.310109578798592 7.51063824865529 -95.126089486469 4.940034626249292 3.7448516613528335 -74.3162091645713 4.914019231162255 3.6555434642458824 -73.27810333054727 7.316585139610567 6.569207364265605 -88.16252371767266 4.5028965963398555 2.673010389626479 -61.37355835367702 4.934903415762507 3.7268068041092604 -74.10673746546807 8.447943239764815 1.8842082251492958 -96.35076947719213 4.402929878981046 2.498286524683617 -59.12786009333465 4.832605867680518 3.4080288729347887 -70.37022924584375 5.28757039294102 4.523131429629108 10.272813638665212 8.106357304611894 3.5842425866343195 1.7769733700774875 2.7415682821576692 -4.421106467150447 15.594226421241713 -11.761811705712676 -0.8279987048566174 -7.388459102643696 -22.35488957085142 2.569954714247855 64.5970053496254 134.08183527512497 -4.590960463882514 -14.255607679572188 30.04263759839772 45.12183641209195 -8.996516866645392 -4.209997862658162 1.4070191895691788 71.45624110533286 -2.931963279042599 1.3158386965141087 48.33277103974174 -3.1565654098349207 1.5924448377844336 53.53184927951532 -22.358089901378033 2.131019175032378 96.34859397651819 -3.6015551056898336 2.36400641493198 66.55072122378859 -3.604194758261218 2.3701071373719036 66.64756853049526 -5.9662071111439445 0.8849515589587917 78.09641345614303 -3.2927575451966327 1.7889064014221507 57.01904584322067 -3.663431191322296 2.5150377974442932 68.93174900996614 -6.432556611729495 2.5441937641950823 90.6621132078183 -3.276894051163878 1.7646243966746002 56.59600212605431 -3.4786982017693773 2.1069568264864698 62.39458330823752 -1.68983615745804 3.9657499341066136 -12.543660775540799 -7.900280371412364 2.7776996514533976 -2.117601018083545 -20.25506885565093 3.2936436313095676 -22.078878181473236 -3.7664615996896575 -46.189993364082014 -0.5642241022972236 -7.524244528108766 53.643477439351344 2.2196040942215203 -0.08896154637497901 -27.349600696986027 4.27933964397902 -0.003216039142388229 -3.048887240095439 -0.3371006033156222 25.042904946768598 -54.133842715239666 -27.188310474947738 -11.496119974205635 61.56265575417534 -18.590614157049185 -3.2439188317248404 -17.221174603714115 6.020493866460987 0.0036680399491667627 -8.812044710164985 0.41998157761805965
-0.14820356667041779 -1.2076153477701261 0.2272169291973114 2.6693953792036758 23.38221992432847 10.678821663387113 0.5743014229943554 -7.522443216271468 -5.437517148180039 6.007029649101218 -23.896804742557478 -18.70472633734313 0 0 0 1.2054152879047548 6.442746053881866 -2.309969374380474 1.977328084498329 -3.8952861780680035 5.212047224983002 0 0 0 0 0 0 24.95800575867304 2.683144438466807 -2.80920687342404 32.18906081741445 -18.149243594089217 -56.62582968599054 -128.3274450980715 -5.1811289244204 13.691316170385832 -15.321088329910474 15.90430916855536 50.52935817494386 7.5557891581506365 12.10948576687264 -80.59318747250576 4.7054344376064385 3.0866484816316593 -66.51297611854227 4.643881141356262 2.950752987003133 -64.84857777447682 18.368865211480536 7.303569944413358 -94.9085528900364 4.946293653259494 3.767349111309157 -74.57687734650622 4.903907505890496 3.62233942888941 -72.89076063109893 7.39324095617513 5.893336580495231 -91.81186168712057 4.5740786216143885 2.808042522846038 -63.076230405287674 4.981984268966354 3.9037294831639873 -76.15048565559243 8.769042356025876 1.3014513125437923 -98.13711624492248 4.4479166890295545 2.5749667206063607 -60.119624111344464 4.87208387403143 3.5227375802568806 -71.72360705137918 3.2457123823794007 4.012409862554758 9.720027406919028 9.041644959827979 4.137135360578483 2.0746375006378344 3.1380452797899854 -4.160635164939279 15.696114108381067 -16.44610772161447 -1.1492180699862322 -7.266721991522019 -24.439833498204415 5.479368641110611 68.51044341739014 131.20437939044126 -4.89328688430513 -13.98076003328626 31.708555192741954 48.727914991788296 -6.003761805706693 -4.186510610168542 1.3784319519889898 70.94327515180325 -2.9131844514588816 1.2948888045790594 47.92196499589292 -3.1396555958903822 1.5697419300422375 53.118865207815745 -22.28269573081013 2.1385401642663715 95.76430257412544 -3.592959980952371 2.344353887990688 66.23800643779062 -3.598015492430991 2.355857704826896 66.42115659026048 -5.944452890601835 0.9551904920241883 77.54168904821758 -3.2774834282340026 1.7655094328207837 56.61170842480463 -3.652881175619566 2.48800012798431 68.50825413574886 -6.413083227563018 2.5841863597478416 90.28152359921295 -3.2614141572942157 1.741301619168157 56.18769296685337 -3.466711844323206 2.0842192879342085 62.01928628369069 -2.2511586812569138 4.257562565526942 -12.707088511807026 -6.12561128534377 1.6941635493912843 -1.5834925906262554 -19.05590425521272 2.6702699992576022 -21.521274767211686 -4.2513505651841905 -46.9864663672714 -0.9698154887164063 -15.448415639230543 49.50705140172892 -2.289163028975822 -0.48663593341264355 -23.19471470044921 6.110644294169415 -0.004078614931305617 -4.38047554122956 -0.5842523246087881 20.13531375262645 -54.03663220822757 -26.19757188983729 -16.360271902757418 58.905072554483034 -20.693251975474105 -3.0000667805304526 -13.565439911021214 5.2927419923169685 0.003500442671084006 -11.73579770136355 0.38121028294550047
-0.17021073400974274 -0.9809488972696379 0.2138872593641281 8.35411433684791 23.731403010857264 10.258939346536023 0.3083953379460652 -7.454677514981913 -4.574288461748836 4.817303170882197 -24.818391383053598 -16.010520948831942 0 0 0 2.794531672955704 6.465419988327758 -2.3280363453136235 12.180274086197976 2.5095303596870853 -1.028839504519369 0 0 0 0 0 0 24.025130731840907 2.556105244269913 -2.8374435711740307 22.78395955646041 -15.70747413284701 -53.30031874203492 -125.59510402710077 -5.440612904465073 13.403408248674653 -17.784348249660884 24.086452587088353 44.42388770699253 7.272574779074762 11.223730473210844 -83.19789358052552 4.739645819800761 3.1671769978948667 -67.48934510875566 4.688215615076264 3.0475940777809223 -66.03691377021902 17.627611028762942 7.480059464285333 -101.45542494942676 5.006990240138416 4.009771643047251 -77.36649899822022 4.987767236156178 3.927313681088085 -76.4213660030615 7.575527606826841 5.214266953676655 -95.25770955412474 4.63401891901526 2.929801120179504 -64.59003848436761 5.019584136620555 4.067300035607394 -78.02385629031454 9.364786848089874 0.6894060375302385 -101.75429922852868 4.5473236485987965 2.756124397885757 -62.424910049519696 4.942870475725573 3.7549452390252585 -74.43309167536056 1.607695031412507 3.4892389737852882 9.436734674573149 9.354270310619448 4.30887338407121 2.167638073816066 3.0745141496403128 -4.1988171562060765 15.646689657554992 -16.41357783758456 -1.0614020941730749 -7.293399353752374 -26.70226627129224 6.255263407139423 68.80513403095728 127.79447249353798 -5.232901111465017 -13.636079276760324 36.748361546498245 52.51001283494244 3.44529805133824 -4.145718274060683 1.3204356697940784 69.70611932061237 -2.870052509172635 1.2479326056819777 46.99223505141037 -3.100813021126338 1.5188603093720983 52.18542873414834 -21.995284622653163 2.2083849171375665 93.38926367523526 -3.555753270879705 2.2624652508258998 64.92595750542718 -3.5533263533289037 2.257324737044884 64.84275582566588 -5.8804583509618045 1.0324270096807098 76.00248086821479 -3.2377158719677177 1.7063939056445023 55.57240867852207 -3.6256160974404676 2.4206524433778203 67.44836517633344 -6.3546274733770876 2.500249509982462 88.26101011224722 -3.2127488916633085 1.670409332061864 54.93346265723362 -3.4255267411157044 2.0087810320624833 60.7659326786273 -3.9165357508924816 5.182005061416253 -12.764469983743126 -2.3848805240916953 -0.5977869203556965 -0.5917360426694861 -16.584581942457696 1.3518295656548018 -20.425525367072474 -3.7069244184130468 -48.34097282509101 -0.6221866836965826 -14.373057361667016 45.99810134998974 -1.6516632695260771 -0.6797915715086308 -12.397479908156985 5.9143294929060435 0.00966853483787628 -11.139894111209351 -1.7573470478611097 16.190121118467196 -52.739425088139846 -24.288456413825074 -16.082083793359807 54.95099972060953 -18.667452239895248 -2.8594743352926755 -6.17690052575511 7.704142498511405 0.0000017859594424535393 -18.14455002784802 0.000001968092643646689
